<svg xmlns="http://www.w3.org/2000/svg" id="mutesvg" viewBox="0 0 20 20"><path d="M10.543.5a1.12 1.12 0 00-1.182.117L3.789 4.875h-1.8A1.127 1.127 0 00.868 6v8a1.127 1.127 0 001.125 1.125h1.8l5.572 4.258a1.117 1.117 0 00.681.232 1.128 1.128 0 001.127-1.126V1.511A1.119 1.119 0 0010.543.5zm-.624 17.736l-5.708-4.361H2.118v-7.75h2.093l5.708-4.361zM13 3.375v1.25a5.375 5.375 0 010 10.75v1.25a6.625 6.625 0 000-13.25z"></path><path d="M16.125 10A3.129 3.129 0 0013 6.875v1.25a1.875 1.875 0 010 3.75v1.25A3.129 3.129 0 0016.125 10z"></path></svg>