<svg xmlns="http://www.w3.org/2000/svg" id="mutesvg" viewBox="0 0 20 20"><path d="M19.442 7.442l-.884-.884L16.5 8.616l-2.058-2.058-.884.884L15.616 9.5l-2.058 2.058.884.884 2.058-2.058 2.058 2.058.884-.884L17.384 9.5l2.058-2.058zM10.543.5a1.12 1.12 0 00-1.182.117L3.789 4.875h-1.8A1.127 1.127 0 00.868 6v8a1.127 1.127 0 001.125 1.125h1.8l5.572 4.258a1.117 1.117 0 00.681.232 1.128 1.128 0 001.127-1.126V1.511A1.119 1.119 0 0010.543.5zm-.624 17.736l-5.708-4.361H2.118v-7.75h2.093l5.708-4.361z"></path></svg>